<?xml version="1.0" encoding="UTF-8" standalone="no"?>
<!-- Created with Inkscape (http://www.inkscape.org/) -->

<svg
   xmlns:dc="http://purl.org/dc/elements/1.1/"
   xmlns:cc="http://creativecommons.org/ns#"
   xmlns:rdf="http://www.w3.org/1999/02/22-rdf-syntax-ns#"
   xmlns:svg="http://www.w3.org/2000/svg"
   xmlns="http://www.w3.org/2000/svg"
   xmlns:sodipodi="http://sodipodi.sourceforge.net/DTD/sodipodi-0.dtd"
   xmlns:inkscape="http://www.inkscape.org/namespaces/inkscape"
   width="101.34704mm"
   height="245.7816mm"
   viewBox="0 0 359.10368 870.87968"
   id="svg4197"
   version="1.1"
   inkscape:version="0.91 r13725"
   sodipodi:docname="mic.svg">
  <defs
     id="defs4199" />
  <sodipodi:namedview
     id="base"
     pagecolor="#ffffff"
     bordercolor="#666666"
     borderopacity="1.0"
     inkscape:pageopacity="0.0"
     inkscape:pageshadow="2"
     inkscape:zoom="0.35"
     inkscape:cx="-298.41701"
     inkscape:cy="411.77947"
     inkscape:document-units="px"
     inkscape:current-layer="layer1"
     showgrid="false"
     inkscape:snap-nodes="false"
     inkscape:window-width="1366"
     inkscape:window-height="700"
     inkscape:window-x="0"
     inkscape:window-y="0"
     inkscape:window-maximized="1"
     fit-margin-top="0"
     fit-margin-left="0"
     fit-margin-right="0"
     fit-margin-bottom="0" />
  <metadata
     id="metadata4202">
    <rdf:RDF>
      <cc:Work
         rdf:about="">
        <dc:format>image/svg+xml</dc:format>
        <dc:type
           rdf:resource="http://purl.org/dc/dcmitype/StillImage" />
        <dc:title></dc:title>
      </cc:Work>
    </rdf:RDF>
  </metadata>
  <g
     inkscape:label="Layer 1"
     inkscape:groupmode="layer"
     id="layer1"
     transform="translate(-199.95793,-68.727722)">
    <g
       id="g4138">
      <circle
         r="179.55183"
         cy="248.27956"
         cx="379.50977"
         id="path4745"
         style="opacity:0.92900002;fill:#333333;fill-opacity:1;stroke:none;stroke-width:9.80000019;stroke-miterlimit:4;stroke-dasharray:none;stroke-opacity:0.95" />
      <path
         inkscape:connector-curvature="0"
         id="path4756"
         d="m 434.42461,840.23044 -81.83008,0 12.2832,99.37695 62.85742,-0.17383 6.68946,-99.20312 z"
         style="opacity:0.92900002;fill:#1a1a1a;fill-opacity:1;stroke:none;stroke-width:9.80000019;stroke-miterlimit:4;stroke-dasharray:none;stroke-opacity:0.95" />
      <path
         sodipodi:nodetypes="ccccscccccc"
         inkscape:connector-curvature="0"
         id="rect4747"
         d="m 300,420.93359 50.57422,409.19532 81.83008,0 L 460,420.93359 c 0,0 -49.07204,22.54398 -74.28571,22.85714 C 356.75098,444.15047 300,420.93359 300,420.93359 Z m 65.71484,94.28516 40,0 0,82.85742 -40,0 z"
         style="opacity:0.92900002;fill:#4d4d4d;fill-opacity:1;stroke:none;stroke-width:9.80000019;stroke-miterlimit:4;stroke-dasharray:none;stroke-opacity:0.95" />
      <path
         sodipodi:nodetypes="ccccccccccccccccscccc"
         inkscape:connector-curvature="0"
         id="path4745-7"
         d="m 476.90039,103.93573 c -0.16196,0.32031 -0.32342,0.64258 -0.48437,0.9668 -1.79114,3.96729 -3.51009,8.18219 -5.15039,12.6289 -1.63993,4.44698 33.94369,31.97728 32.47098,36.8591 -1.47291,4.88124 -40.00031,-12.89208 -41.2913,-7.62472 -1.29067,5.26741 34.65669,33.56885 33.56083,39.16964 -1.09642,5.60109 -39.23466,-11.50538 -40.12528,-5.62667 -0.89004,5.87845 55.46863,23.30605 54.79325,29.40318 -0.67545,6.09693 -58.38412,0.85578 -58.83817,7.11049 -0.45456,6.25498 -0.79679,12.5695 -1.02539,18.91992 -0.22798,6.35055 73.94365,27.01468 42.51534,19.11133 -2.70997,25.13526 8.89588,7.04651 -41.85909,32.53711 0.38821,6.28922 49.46026,9.66316 50.07143,15.81278 0.6118,6.15023 -47.23803,15.06833 -46.40932,21.0173 0.82872,5.94832 1.76348,11.77721 2.80078,17.46484 1.0369,5.68779 30.74647,-0.20131 31.98158,5.16909 1.23501,5.37041 -29.58651,28.40681 -24.5851,26.99302 32.84959,-9.28588 2.93072,9.79814 4.52344,14.37695 0.85663,2.34719 1.73518,4.63118 2.63476,6.84961 48.1929,-33.5105 76.96307,-88.46175 77.04688,-147.16015 -0.0845,-56.77695 -27.0182,-110.16855 -72.63086,-143.97852 z"
         style="opacity:0.92900002;fill:#666666;fill-opacity:1;stroke:none;stroke-width:9.80000019;stroke-miterlimit:4;stroke-dasharray:none;stroke-opacity:0.95" />
      <rect
         y="544.25543"
         x="371.73615"
         height="47.477169"
         width="26.263966"
         id="rect4868"
         style="opacity:0.92900002;fill:#666666;fill-opacity:1;stroke:none;stroke-width:9.80000019;stroke-miterlimit:4;stroke-dasharray:none;stroke-opacity:0.95" />
    </g>
  </g>
</svg>
